<svg xmlns="http://www.w3.org/2000/svg" width="250" height="250" viewBox="0 0 250 250" fill="none">
<rect width="250" height="250" fill="#FEFFFE"/>
<path d="M 120.6,7.39 C 120.44,18.78 126.91,22.41 132.59,36.45 L 128.06,39.41 C 126.18,29.16 118.66,22.13 116.78,15.1 C 102.72,24.28 98.17,39.88 105.93,53.82 C 107.79,57.29 110.83,60.76 110.83,60.76 C 107.73,51.73 109.19,40.89 113.55,32.11 C 111.71,42.08 112.19,51.29 118.66,66.62 C 117.67,51.73 128.28,36.11 147.16,35.66 C 157.81,35.38 164.81,37.77 169.69,42.41 C 161.93,46.31 158.72,52.01 156.72,60.71 C 154.72,68.73 149.73,76.97 141.09,80.71 C 137.71,82.21 130.71,83.29 130.12,86.76 C 129.78,89.09 131.95,92.83 133.41,96.68 C 137.71,107.9 132.41,118.95 124.31,125.64 C 116.95,131.79 109.84,136.11 109.25,145.91 C 96.64,137.56 91.34,127.93 91.56,117.1 C 91.73,106.73 96.84,99.42 104.37,92.22 C 97.78,90.72 92.16,92.11 86.14,95.35 C 81.15,98.08 75.96,97.91 73.62,92.83 C 72.86,90.94 70.41,91.06 69.37,89.01 C 68.32,86.9 69.31,85.18 67.74,83.12 C 64.76,79.22 63.99,76.15 66.61,73.24 C 68.95,70.62 65.74,67.71 66.02,65.03 C 66.42,61.85 68.92,61.85 70.44,60.19 C 72.01,58.41 70.72,55.73 73.06,53.95 C 75.22,52.35 77.1,53.06 78.73,51.62 C 82.06,48.55 84.79,46.65 89.62,49.61 C 91.96,51.06 92.9,53.62 95.74,53.73 C 97.91,53.84 97.86,57.42 99.79,58.75 C 102.08,60.36 104.7,60.76 106.81,61.4 C 97.83,50.51 94.94,35.83 101.24,23.69 C 106.01,14.66 114.11,10.45 120.6,7.39 Z M 124.12,68.9 C 128.78,59.05 134.34,54.09 144.28,50.73 C 134.74,57.93 130.21,64.45 126.12,80.94 C 130.07,78.94 134.65,76.94 137.93,75.81 C 146.57,72.74 149.95,64.72 151.95,56.64 C 153.35,50.65 156.25,46.91 159.4,43.28 C 155.05,41.28 149.75,40.51 144.76,41.39 C 132.15,43.73 123.06,52.76 124.12,68.9 Z M 123.89,86.93 C 114.74,94.41 108.16,103.01 106.67,119.06 C 105.04,107.67 107.59,100.58 111.88,93.21 C 102.46,97.37 96.16,105.17 96.56,117.04 C 96.78,124.95 100.06,131.05 106.21,136.75 C 109.25,130.49 114.99,125.85 121.23,120.21 C 127.93,113.95 130.71,105.93 127.93,98.78 C 126.05,93.71 123.89,91.54 123.89,86.93 Z M 78.02,55.84 C 76.02,56.92 75.96,56.15 75.14,58.94 C 74.32,61.74 73.79,62.51 72.16,63.64 C 70.05,65.09 70.16,66.42 71.03,68.81 C 71.79,71.03 71.51,71.91 69.94,74.02 C 68.25,76.46 68.95,77.79 70.72,79.85 C 72.72,82.24 72.32,82.46 72.21,85.2 C 72.04,88.89 73.14,87.95 75.14,88.89 C 77.15,89.83 77.43,91.39 78.89,92.52 C 80.89,91.75 82.18,90.14 85.39,89.91 C 87.94,89.74 87.12,87.18 89.96,84.9 C 92.24,83.01 94.74,81.82 95.02,80.04 C 95.36,78.04 94.18,76.15 95.11,73.76 C 96.11,71.14 97.41,68.64 96.82,66.86 C 96.05,64.41 94.12,64.75 93.07,61.12 C 92.24,58.05 92.78,57.17 89.91,56.4 C 87.74,55.78 87.15,53.95 85.75,52.82 C 83.93,51.37 82.83,53.98 80.61,55.11 C 79.62,55.67 78.85,55.45 78.02,55.84 Z" fill="#F78C00"/>
<path d="M 63.97,34.27 C 71.43,36.16 77.15,34.21 82.15,33.93 C 87.94,33.65 91.42,35.09 94.94,36.76 L 94.46,44.94 C 88.68,39.13 81.83,39.52 71.01,40.65 C 70.18,45.15 70.18,48.06 70.02,54.26 L 67.85,54.82 C 64.47,48.72 63.54,43.25 63.97,34.27 Z" fill="#F78C00"/>
<path d="M 63.91,87.15 C 63.91,88.98 64.31,90.11 66.24,91.17 C 62.86,95.22 62.15,97.91 61.93,102.41 C 68.92,103.18 72.97,107.67 84.01,106.11 C 86.23,105.77 87.74,105.49 89.74,105.15 L 88.45,110.62 C 82.21,112.29 76.02,111.61 70.61,109.11 C 65.15,107.33 62.26,107.05 54.5,108.38 C 56.22,99.64 58.95,93.82 63.91,87.15 Z" fill="#F78C00"/>
<path d="M 181.42,67.34 C 191.25,77.14 194.14,90.03 193.49,100.75 C 192.38,118.89 182.84,131.96 164.7,145.31 C 151.41,155.33 136.12,162.81 126.12,174.2 C 117.09,184.62 112.79,194.25 115.34,209.41 C 116.44,196.18 122.8,189.66 132.22,182.74 C 137.68,178.63 141.06,175.45 143.95,169.75 C 145.96,168.25 147.63,171.55 146.75,175.12 C 145.24,181.38 139.19,185.49 137.62,188.62 C 136.06,191.86 143.06,191.86 148.52,187.75 C 156.28,181.94 161.16,174.63 166.09,161.01 C 168.32,156.75 170.71,154.19 174.71,153.63 C 176.43,153.35 175.72,155.02 174.73,157.41 C 171.2,165.16 170.71,172.75 167.23,180.23 C 163.96,187.15 160.11,195.17 152.95,200.13 C 142.72,207.33 134.62,208.78 128.6,214.93 C 122.06,221.74 120.33,231.71 124.37,243.61 C 109.42,228.72 104.12,214.99 105.52,198.39 C 107.25,178.29 119.11,161.12 136.06,139.86 C 145.65,127.56 150.64,117.15 149.76,105.28 C 148.82,96.82 143.83,92.22 134.34,90.05 L 134.06,86.65 C 139.84,85.93 143.89,84.1 148.19,81.03 C 156.83,89.06 159.61,98.19 158.62,108.61 C 157.11,124.72 146.01,138.93 131.06,158.7 C 126.07,164.51 123.09,168.72 121.11,172.75 C 130.15,157.87 146.29,147.15 159.88,136.73 C 170.6,128.32 179.75,118.52 184.22,109.11 C 177.75,119.94 170.71,127.53 158.21,136.05 L 144.92,145.23 L 157.31,126.63 C 170.97,114.93 183.75,104.68 184.28,86.25 C 184.62,78.16 183.75,73.02 181.42,67.34 Z" fill="#F78C00"/>
<path d="M 59.34,118.61 C 61.34,128.15 66.22,134.67 77.91,140.71 C 91.05,147.8 99.91,152.35 105.15,171.88 C 106.21,176.43 105.27,178.32 104.09,182.22 C 102.41,187.69 101.47,190.54 101.58,199.9 C 99.36,182.74 93.95,172.32 79.05,160.93 C 64.62,150.51 55.58,138.65 59.34,118.61 Z M 71.93,144.23 C 78.4,150.76 94.6,156.57 99.95,174.72 C 98.17,162.42 90.41,155.05 71.93,144.23 Z" fill="#F78C00"/>
<path d="M 164.92,151.91 C 166.16,156.46 165.17,162.28 162.72,167.35 C 158.42,176.21 153.43,183.02 148.19,186.09 C 152.49,179.23 152.92,176.32 152.16,166.24 C 152.49,163.22 154.83,161.17 156.19,160.04 C 156.69,167.52 156.19,170.43 154.74,175.45 C 158.12,170.9 158.72,165.09 159.65,157.61 C 160.14,154.99 162.75,152.55 164.92,151.91 Z" fill="#F78C00"/>
<path d="M 86.62,65.7 C 88.34,66.73 89.05,68.28 92.69,69.41 C 93.79,69.75 93.4,72.14 91.84,71.74 C 88.79,70.86 87.01,69.92 85.13,68.42 C 83.62,67.15 85.02,64.81 86.62,65.7 Z" fill="#F78C00"/>
<path d="M 81.81,70.66 C 82.63,70.1 83.79,70.44 85.13,70.66 C 87.01,70.94 89.02,71.34 91.79,71.62 C 93.67,71.85 93.39,74.41 91.79,74.13 C 88.74,73.62 86.73,73.34 84.18,73.73 C 81.29,74.24 80.24,71.79 81.81,70.66 Z" fill="#F78C00"/>
<path d="M 84.65,79.08 C 85.64,77.7 87.74,77.08 89.62,76.63 C 90.72,76.35 91.54,76.07 92.13,76.01 C 93.7,75.78 93.76,78.35 92.13,78.57 C 89.91,78.85 88.19,79.31 86.9,80.37 C 85.33,81.65 83.45,80.52 84.65,79.08 Z" fill="#F78C00"/>
</svg>